<svg width="78" height="32" viewBox="0 0 78 32" fill="none" xmlns="http://www.w3.org/2000/svg">
<rect width="78" height="32" rx="16" fill="#0085FF" fill-opacity="0.1"/>
<path d="M28.7 12C28.501 11.4352 28.1374 10.943 27.6563 10.5865C27.1751 10.2301 26.5983 10.0258 26 10H22C21.2044 10 20.4413 10.3161 19.8787 10.8787C19.3161 11.4413 19 12.2044 19 13C19 13.7956 19.3161 14.5587 19.8787 15.1213C20.4413 15.6839 21.2044 16 22 16H26C26.7956 16 27.5587 16.3161 28.1213 16.8787C28.6839 17.4413 29 18.2044 29 19C29 19.7956 28.6839 20.5587 28.1213 21.1213C27.5587 21.6839 26.7956 22 26 22H22C21.4017 21.9742 20.8249 21.7699 20.3437 21.4135C19.8626 21.057 19.499 20.5648 19.3 20" stroke="#0085FF" stroke-width="2" stroke-linecap="round" stroke-linejoin="round"/>
<path d="M24 7V10M24 22V25" stroke="#0085FF" stroke-width="2" stroke-linecap="round" stroke-linejoin="round"/>
<path d="M51.32 10.02V12.76H44.84V15.78H51V18.52H44.84V24H41.72V10.02H51.32ZM58.9061 10.02C61.0528 10.02 62.6128 10.44 63.5861 11.28C64.5728 12.1067 65.0661 13.3867 65.0661 15.12C65.0661 16.84 64.5594 18.1 63.5461 18.9C62.5461 19.7 61.0128 20.1 58.9461 20.1H57.0861V24H53.9661V10.02H58.9061ZM59.1861 17.4C60.2261 17.4 60.9328 17.1933 61.3061 16.78C61.6794 16.3533 61.8661 15.74 61.8661 14.94C61.8661 14.1267 61.6194 13.5533 61.1261 13.22C60.6461 12.8733 59.8928 12.7 58.8661 12.7H57.0861V17.4H59.1861Z" fill="white"/>
</svg>
